<svg width="143" height="36" viewBox="0 0 143 36" fill="none" xmlns="http://www.w3.org/2000/svg">
<rect width="36" height="36" rx="18" fill="#7B61FF"/>
<path d="M16.4381 6.57191C17.4038 6.03992 18.5802 6.06903 19.5444 6.60387C20.4005 7.07882 21.5504 7.65131 22.8319 8.11435C24.2849 8.63933 25.7011 9.07499 26.7024 9.36624C27.5361 9.60874 28.125 10.3934 28.125 11.2927V16.4645C28.125 17.2131 28.0698 17.9606 27.96 18.7005C27.3277 22.9602 24.9243 26.7155 21.3879 28.9698L18.5574 30.774C18.2154 30.992 17.7846 30.992 17.4426 30.774L14.612 28.9697C11.0757 26.7155 8.67232 22.9602 8.03999 18.7006C7.93015 17.9607 7.87499 17.2131 7.875 16.4644L7.87505 11.3512C7.87506 10.4251 8.49874 9.6249 9.36251 9.3956C10.4585 9.10467 11.9793 8.65727 13.2859 8.11435C14.4254 7.64088 15.5649 7.05296 16.4381 6.57191Z" fill="#06050B"/>
<path d="M13.5997 18.1949L19.9269 11.9572C20.2728 11.6161 20.852 11.9243 20.7625 12.4017L19.7088 18.0215C19.6877 18.1339 19.7843 18.2332 19.8972 18.2152L22.826 17.7504C23.1424 17.7001 23.3382 18.0842 23.1117 18.3107L16.8976 24.5247C16.5528 24.8695 15.9696 24.5619 16.0595 24.0826L17.1097 18.4815C17.1307 18.3694 17.0347 18.2702 16.922 18.2876L13.8823 18.7571C13.5652 18.8061 13.3712 18.4201 13.5997 18.1949Z" fill="white"/>
<path d="M47.7216 26.2983V8.84375H59.0739V11.4943H50.8836V16.233H58.4858V18.8835H50.8836V23.6477H59.1421V26.2983H47.7216Z" fill="white"/>
<path d="M72.51 16.6676L69.6975 16.9744C69.6179 16.6903 69.4787 16.4233 69.2799 16.1733C69.0867 15.9233 68.8253 15.7216 68.4958 15.5682C68.1662 15.4148 67.7628 15.3381 67.2855 15.3381C66.6435 15.3381 66.1037 15.4773 65.6662 15.7557C65.2344 16.0341 65.0213 16.3949 65.027 16.8381C65.0213 17.2188 65.1605 17.5284 65.4446 17.767C65.7344 18.0057 66.2117 18.2017 66.8764 18.3551L69.1094 18.8324C70.348 19.0994 71.2685 19.5227 71.8708 20.1023C72.4787 20.6818 72.7855 21.4403 72.7912 22.3778C72.7855 23.2017 72.5441 23.929 72.0668 24.5597C71.5952 25.1847 70.9389 25.6733 70.098 26.0256C69.2571 26.3778 68.2912 26.554 67.2003 26.554C65.598 26.554 64.3083 26.2188 63.331 25.5483C62.3537 24.8722 61.7713 23.9318 61.5838 22.7273L64.5924 22.4375C64.7287 23.0284 65.0185 23.4744 65.4617 23.7756C65.9049 24.0767 66.4816 24.2273 67.1918 24.2273C67.9247 24.2273 68.5128 24.0767 68.956 23.7756C69.4049 23.4744 69.6293 23.1023 69.6293 22.6591C69.6293 22.2841 69.4844 21.9744 69.1946 21.7301C68.9105 21.4858 68.4674 21.2983 67.8651 21.1676L65.6321 20.6989C64.3764 20.4375 63.4475 19.9972 62.8452 19.3778C62.2429 18.7528 61.9446 17.9631 61.9503 17.0085C61.9446 16.2017 62.1634 15.5028 62.6066 14.9119C63.0554 14.3153 63.6776 13.8551 64.473 13.5312C65.2742 13.2017 66.1975 13.0369 67.2429 13.0369C68.777 13.0369 69.9844 13.3636 70.8651 14.017C71.7514 14.6705 72.2997 15.554 72.51 16.6676Z" fill="white"/>
<path d="M75.3353 26.2983V13.2074H78.4205V26.2983H75.3353ZM76.8864 11.3494C76.3978 11.3494 75.9773 11.1875 75.625 10.8636C75.2728 10.5341 75.0966 10.1392 75.0966 9.67898C75.0966 9.21307 75.2728 8.81818 75.625 8.49432C75.9773 8.16477 76.3978 8 76.8864 8C77.3807 8 77.8012 8.16477 78.1478 8.49432C78.5 8.81818 78.6762 9.21307 78.6762 9.67898C78.6762 10.1392 78.5 10.5341 78.1478 10.8636C77.8012 11.1875 77.3807 11.3494 76.8864 11.3494Z" fill="white"/>
<path d="M81.5931 26.2983V13.2074H84.5419V15.4318H84.6953C84.9681 14.6818 85.4198 14.0966 86.0505 13.6761C86.6811 13.25 87.434 13.0369 88.309 13.0369C89.1953 13.0369 89.9425 13.2528 90.5505 13.6847C91.1641 14.1108 91.5959 14.6932 91.8459 15.4318H91.9823C92.272 14.7045 92.7607 14.125 93.4482 13.6932C94.1414 13.2557 94.9624 13.0369 95.9113 13.0369C97.1158 13.0369 98.0988 13.4176 98.8601 14.179C99.6215 14.9403 100.002 16.0511 100.002 17.5114V26.2983H96.9084V17.9886C96.9084 17.1761 96.6925 16.5824 96.2607 16.2074C95.8289 15.8267 95.3005 15.6364 94.6755 15.6364C93.9311 15.6364 93.3487 15.8693 92.9283 16.3352C92.5135 16.7955 92.3061 17.3949 92.3061 18.1335V26.2983H89.2806V17.8608C89.2806 17.1847 89.076 16.6449 88.6669 16.2415C88.2635 15.8381 87.7351 15.6364 87.0817 15.6364C86.6385 15.6364 86.2351 15.75 85.8715 15.9773C85.5078 16.1989 85.2181 16.5142 85.0022 16.9233C84.7863 17.3267 84.6783 17.7983 84.6783 18.3381V26.2983H81.5931Z" fill="white"/>
<path d="M114.357 13.2074L109.695 26.2983H106.286L101.624 13.2074H104.913L107.922 22.9318H108.058L111.075 13.2074H114.357Z" fill="white"/>
<path d="M116.492 31.2074V13.2074H119.526V15.3722H119.705C119.864 15.054 120.088 14.7159 120.378 14.358C120.668 13.9943 121.06 13.6847 121.554 13.429C122.048 13.1676 122.679 13.0369 123.446 13.0369C124.457 13.0369 125.369 13.2955 126.182 13.8125C127 14.3239 127.648 15.0824 128.125 16.0881C128.608 17.0881 128.849 18.3153 128.849 19.7699C128.849 21.2074 128.614 22.429 128.142 23.4347C127.67 24.4403 127.028 25.2074 126.216 25.7358C125.403 26.2642 124.483 26.5284 123.455 26.5284C122.705 26.5284 122.082 26.4034 121.588 26.1534C121.094 25.9034 120.696 25.6023 120.395 25.25C120.099 24.892 119.869 24.554 119.705 24.2358H119.577V31.2074H116.492ZM119.517 19.7528C119.517 20.5994 119.636 21.3409 119.875 21.9773C120.119 22.6136 120.469 23.1108 120.923 23.4688C121.384 23.821 121.94 23.9972 122.594 23.9972C123.276 23.9972 123.847 23.8153 124.307 23.4517C124.767 23.0824 125.114 22.5795 125.347 21.9432C125.585 21.3011 125.705 20.571 125.705 19.7528C125.705 18.9403 125.588 18.2188 125.355 17.5881C125.122 16.9574 124.776 16.4631 124.315 16.1051C123.855 15.7472 123.281 15.5682 122.594 15.5682C121.935 15.5682 121.375 15.7415 120.915 16.0881C120.455 16.4347 120.105 16.9205 119.867 17.5455C119.634 18.1705 119.517 18.9062 119.517 19.7528Z" fill="white"/>
<path d="M134.577 18.6278V26.2983H131.492V13.2074H134.44V15.4318H134.594C134.895 14.6989 135.375 14.1165 136.034 13.6847C136.699 13.2528 137.52 13.0369 138.497 13.0369C139.401 13.0369 140.188 13.2301 140.858 13.6165C141.534 14.0028 142.057 14.5625 142.426 15.2955C142.801 16.0284 142.986 16.9176 142.98 17.9631V26.2983H139.895V18.4403C139.895 17.5653 139.668 16.8807 139.213 16.3864C138.764 15.892 138.142 15.6449 137.347 15.6449C136.807 15.6449 136.327 15.7642 135.906 16.0028C135.492 16.2358 135.165 16.5739 134.926 17.017C134.693 17.4602 134.577 17.9972 134.577 18.6278Z" fill="white"/>
</svg>
