<svg width="48" height="48" viewBox="0 0 48 48" fill="none" xmlns="http://www.w3.org/2000/svg">
<rect width="48" height="48" rx="24" fill="white" fill-opacity="0.12"/>
<path fill-rule="evenodd" clip-rule="evenodd" d="M27.1625 9.75L27.0058 9.90619L27.1254 10.0254L27.1625 10.0624V9.75ZM27.1625 10.1405L26.9276 10.2227L27.1254 10.3378L27.1625 10.1405ZM26.2636 10.2597L26.1441 10.7693L26.3792 10.457L26.2636 10.2597ZM29.3602 10.9255L29.2819 11.5092L28.8902 11.8215V12.0188L28.6923 12.7217L29.0056 12.919L28.9273 13.2683H29.1623L28.9273 13.3094L28.849 13.6218L29.2036 13.5026L29.084 13.778L29.4798 13.6218L29.2448 13.4245L29.4798 13.3464L29.2448 13.3094L29.4385 13.2683L29.2448 13.1121H29.4385L29.2036 12.8778L29.4015 12.8409L29.3602 12.6066L29.3231 12.2531L29.6736 11.2379L29.3602 10.9255ZM23.3609 11.1187V11.353H23.163L23.2413 11.5873L23.398 11.5503L23.5959 11.5092L23.398 11.7064L23.8309 11.8626L24.1443 11.3941L23.9093 11.1968L23.7114 11.353L23.6743 11.1187L23.633 11.4311L23.398 11.1968L23.3609 11.1187ZM23.0063 11.3941V12.0188L22.8125 11.5092L22.7341 11.7845L22.5362 11.5873L22.7341 11.4722L22.3795 11.5873L22.5362 12.3723L22.8496 12.0599V12.2531L22.9692 12.138L23.0846 12.2942L22.5775 12.4874L22.6146 12.6847L23.0063 12.5655L22.6929 12.7217L22.8908 12.8409L22.5775 12.7628L22.7713 13.0751L22.9692 13.3464L23.2825 12.2942L23.398 12.2161L23.5959 12.138L23.398 11.9037V11.8996L23.2042 11.6284L23.1259 11.7845L23.0063 11.3941ZM23.5959 12.175L23.398 12.2531L23.5176 12.4093L23.5959 12.175ZM23.7526 12.3723L23.5176 12.4874V12.8409L23.7114 12.7628L23.7526 12.9559L23.9093 12.7217L23.7526 12.3723ZM29.4798 13.6999L29.2036 13.778L29.0056 13.9753L29.1665 14.0534L29.0056 14.2465L29.2448 14.1684L29.1252 14.7932L29.3231 14.9494L29.5582 14.7562L29.9086 15.1056L30.4983 14.7932L29.7149 14.4438L29.4798 14.0904V13.6999ZM32.498 14.5589L31.3601 14.8343V15.0686L31.7929 15.3029L31.6363 15.5001L31.7146 15.6933L31.3601 15.459L31.2446 15.8906L30.8899 16.1249V16.3592L30.5766 16.5154L30.4571 16.1619L30.5766 15.9687L30.4571 16.0468L30.3787 16.5524L30.2633 16.3962L29.752 17.1032L29.9499 17.2182L29.6736 17.3744L29.7931 17.7649L29.4798 17.921L29.1252 17.6867L29.4015 17.3374L29.2819 17.1812L28.4573 17.1032L28.7706 17.2593L29.2819 18.5869L28.7335 18.3896L28.4985 18.8212L28.3789 19.0966L28.3542 19.1952L28.4985 19.4089L28.6923 19.6802H28.5768H28.1439L28.0655 19.8364L28.1439 19.6432L27.715 19.5651L27.6738 19.8364L28.1439 19.9926L28.0655 20.3461L27.2822 20.0707L27.0058 19.5651L27.0842 19.2527L26.5771 19.1336L26.7337 19.0184L26.2225 18.6649L28.0655 18.8623L28.2222 18.5869L28.4201 18.1184L27.9212 17.7402L27.9088 17.7278L27.8305 17.6497L26.6925 17.2593L26.342 17.2963L26.2636 17.5717L26.3008 17.2593L26.0287 17.2963L25.9503 17.1032H26.1853L25.9503 16.9839L25.7936 17.2593L25.5544 17.1032L25.439 17.2593L25.2411 17.062L25.1628 16.9839H25.5173L25.6741 16.7497L25.204 16.5524L25.0061 16.8278L25.1257 16.5154L24.9277 16.4373L24.8494 16.8278L24.7339 16.9058V16.5524L24.4989 17.1032L24.5773 16.6304L24.3422 16.5524L24.1443 17.1812L23.7567 16.9387L23.7938 17.1812L23.8722 17.3374L23.6743 17.1812L23.398 17.5717L23.3609 17.6087L23.398 17.5306L23.4763 17.1812L23.398 17.3374L23.3197 17.5306V17.2963L23.163 17.4155L23.2825 17.6497L23.0063 17.4936L22.8908 17.9621L22.6146 18.0402L22.9279 18.1184H22.5775V18.4677L22.4991 18.1964L22.3013 18.3115L22.4579 18.3896H22.2229L22.4208 18.5869L22.0662 18.7431L22.3013 18.8582L21.8312 18.9404L21.9466 19.0184L21.6745 19.3679L21.9466 19.3308L21.5549 19.4459L21.6745 19.6021L21.5549 19.524L21.3611 19.9144H21.5962L21.1261 20.1118L21.3611 20.0707L21.1261 20.2268L21.2415 20.383L21.0478 20.4611L21.0065 20.2679L20.5364 20.7776L20.7715 20.8557L21.0848 20.5803L20.9282 20.9708L20.6148 21.0119L20.5777 20.8146L20.2602 20.8927L20.2231 21.2461L20.0252 21.09L20.1818 21.3243L19.7902 21.09L20.0664 21.2832L19.5551 21.2461L19.753 21.5956L19.6335 21.4394L19.5551 21.5585L19.3984 21.4804L19.4767 21.5956L19.1634 21.4394V21.5956L19.5964 21.7147L19.1634 21.6367L19.048 21.7928L19.2829 21.9079L19.0067 21.8709L19.2046 21.949L19.048 22.1052H19.4397L19.518 21.986L19.6747 22.1833L19.7902 21.986V22.1422L19.5551 22.3395L19.4767 22.1422L18.9696 22.1052L19.1263 22.2614H18.9283L19.0067 22.4176L19.1634 22.3395L18.9283 22.5367L18.9696 22.693L19.1263 22.5367L18.9696 22.8491L19.518 22.5738L18.85 23.0423L18.9283 23.1985L19.2418 23.0834L18.9696 23.3177L19.2046 23.3958L19.0851 23.5109L18.8913 23.3547L18.85 23.6301L19.2046 24.0575H19.5964L20.1035 23.5109L20.3798 23.589L20.5364 23.0834L20.5653 23.7205H20.557L20.5777 24.0616L20.7261 24.0288C20.7261 24.0288 20.7013 24.151 20.6849 24.2302L20.656 24.3329L20.7385 24.2096C20.7725 24.1592 20.8045 24.1069 20.8045 24.1069L20.6973 24.4439L20.6932 24.4521L21.0024 25.1796L20.8498 25.3194L20.8127 25.3481V25.3522L20.8869 25.9359L21.3652 25.9811L21.5921 25.5125L21.9961 25.5824L22.3053 24.7645L22.2889 24.5672L22.2847 24.5302L22.2641 24.1438L22.3218 24.1356H22.4208L22.2971 24.0739L22.2023 24.0205L22.3053 24L22.6146 23.9425L22.627 23.8726L22.6641 23.7329L22.7341 23.9425L22.8373 23.8397L23.0104 23.6835L22.9981 23.6753L23.0063 23.6671L22.9156 23.6137L22.8991 23.6013H22.8949L22.8208 23.5479L22.8373 23.5355L22.8537 23.5274L22.8826 23.5068L23.1259 23.3547L22.9403 23.0588L22.9238 23.03L22.8166 22.8491L22.5403 22.7669L22.7341 21.3736L22.829 21.4558L22.8908 21.5174L23.3897 21.0941L23.398 21.0859L23.5959 20.8927L23.6 20.8804L23.8309 20.5022L23.8268 20.4941L23.7197 19.9679L23.7856 20.009L23.7938 20.0132L23.8722 20.0707L23.8557 19.9268L23.8351 19.7254L23.8846 19.7542L24.0248 19.8405V19.8364H24.0289L24.033 19.8076L24.0371 19.7953V19.787L24.0784 19.6021L24.536 19.6432L24.8123 20.1118L23.7155 21.5134L23.7114 21.5174L23.9093 22.3025L23.8309 22.8491L24.1856 23.0834L24.2144 23.0629L24.2186 23.0588L24.2227 23.0546L24.3381 22.9807L24.3299 23.0546L24.301 23.3177L24.3092 23.3136L25.9874 22.6149L26.0287 22.8491L26.5771 23.0054L25.909 23.1985L25.8719 23.4205V23.4246L25.5173 23.3958L25.4473 23.3875H25.4431L25.1628 23.3547L24.602 23.6177L24.4865 23.6712L24.6103 24.2219L24.8906 24.2302L24.8494 24.859L24.7505 24.9454L24.6308 25.0234L24.4494 24.8179L24.4371 24.8014L24.2639 24.5672L23.9505 24.7234L23.9216 24.8056L23.9093 24.8302L23.9011 24.8549L23.699 25.3481L23.7732 25.8989L23.8021 26.0798L23.8309 26.3264H23.5959L23.7732 25.8989L23.5959 26.2483L23.398 26.3264V26.5237L23.5547 26.4826L23.4104 26.5976H23.4062H23.3815L23.3773 26.6182L23.163 26.7579L23.3609 26.5237L22.9692 26.6798L22.6558 26.3675L21.4766 26.795L21.4394 27.0703L20.891 26.5237L20.1035 26.7168L20.2231 26.4455H19.8685L19.6747 26.0921L19.7902 25.5824L20.3386 25.192L20.0664 24.9988L20.3386 24.411L19.5964 24.6864L19.2418 26.0921L19.3984 26.0551L19.4767 26.2894L19.3201 26.3675L19.7118 26.9141L19.3201 26.6387L19.2046 26.9511L19.048 26.7168H18.7346L18.8129 26.9511L18.2604 26.7579L18.0254 26.9141L18.145 27.2265L17.9099 27.3416L17.7904 26.9141L17.3987 27.4608L17.5966 27.6581H17.1265L17.3987 27.8512L16.3802 27.8923L16.3019 28.3198L16.1452 28.3609L15.5184 28.6322L14.8876 28.1636V28.8664L14.3804 28.7884L14.3021 28.5171H13.597L13.7908 28.7514L13.597 28.6733V28.9856L14.3021 29.4172L14.3804 30.079L14.6155 30.2762L14.4588 30.6256L14.4959 30.7078L13.9475 31.8792L11.7498 31.0202L11.556 30.7448L10.7726 30.864L10.9293 31.4107L10.418 32.582L9.86957 33.2068H10.1046L9.90668 33.4411L10.1458 33.5603H10.0675L9.75 34.2631L10.6942 34.4974L11.0447 35.4345L11.7127 35.2414L12.7311 35.6318L13.1641 35.2784L13.5145 35.3195L13.7125 34.929L13.9475 34.8508L14.1042 34.8097L14.0258 34.6947L13.9104 34.5385L14.0258 34.185L14.1454 34.1069L14.7309 33.5973L15.7906 33.363V32.7794L16.0256 32.5409L16.3802 32.4629L17.242 32.9725L18.4955 32.3478L19.0851 32.7382L19.3613 33.7165L21.3611 35.3195L21.5962 36.0223L21.2828 36.4909L21.4766 36.5689L21.7528 36.0592L22.0662 35.9442L21.7528 35.5126L21.9466 35.1221L22.3795 35.2003L22.6146 35.5126L22.6929 35.3195L21.5178 34.4563L21.6332 34.222L21.0065 34.0658L20.5777 33.1287L20.0664 32.7013L20.0252 31.9573L20.6148 31.8011L20.6602 31.9861L20.7344 32.4095L21.0437 32.1176L21.5962 33.2438L21.9796 33.3178L22.3218 33.6178L22.3548 33.6918L22.8661 33.9261L23.2 34.3001L23.0392 35.1592L23.3238 35.4921L23.398 35.5907V35.5619L23.7319 36.01L23.934 35.9565L23.7691 36.0922L23.934 36.3593L24.9525 36.4498L24.8041 36.5566L24.066 36.458L23.9505 36.6429L24.2186 37.2677L24.4453 37.1238L24.6103 37.4896L24.6845 37.243L24.9525 37.4403L24.7463 36.8073L25.1133 36.8731L24.8617 36.6018L25.1215 36.4909L25.3565 36.7004L25.373 36.4251L24.6185 36.0592L24.837 35.9401L24.8205 35.7428L24.9937 35.8085L24.6185 35.0852L24.7876 35.0071L25.2617 35.3688L25.1628 35.1345L25.4638 35.2167L25.1215 34.8838L25.7895 34.6988L26.2306 34.7851V34.781L26.5771 34.8508L26.3008 35.2414L26.8904 34.6166L27.5543 34.5385L27.0925 33.9919L26.8904 33.7493L26.742 33.7864L27.2079 33.0835L27.2244 32.6355L27.2409 32.2121L27.311 32.3273L27.3192 32.3478L27.5955 32.1916L27.5171 31.6038L27.579 31.7272V31.7312L27.5955 31.76L27.6491 31.6573L27.8717 31.4107L27.9501 31.0983L28.4201 30.8229L28.6552 31.0202L28.2222 31.0572L28.4573 31.0983L28.3789 31.2134L29.1623 31.1353L29.2036 31.3326L28.7706 31.6819L29.0469 31.6038L29.2036 32.1135L29.4798 32.1505L30.4983 31.3326L30.0282 31.4888H29.7931L29.5169 31.2134L29.752 30.7859L29.7149 31.0572L30.0282 30.6256L31.2817 29.9227L31.125 30.3544L30.7704 30.4324L31.0466 30.6297L30.8488 31.2134L30.4983 31.4477L32.1434 32.0724L32.8898 32.3067L33.0671 32.6108H33.0877L33.3845 32.5615L33.632 32.6108L33.8629 32.5122L34.0113 32.4793L34.6091 32.4629L34.8896 32.6108H35.0545L35.2689 32.7588L35.7183 32.8738L35.8338 32.841L35.9822 32.7752L36.4605 32.7588L36.7656 32.8821L36.6955 32.4629L37.0089 32.1505H36.5759L35.4792 31.3696L35.2441 30.7037L35.2029 30.9421L34.6958 30.4324L34.7329 29.6885L35.2441 29.4172L35.2813 28.9076L35.8297 28.2828L35.9822 28.2294V28.0937L35.8502 27.9293L35.7018 27.7978L35.6359 27.5142L35.5369 27.1361L34.939 26.6264L34.8071 26.2113V26.0304L35.0875 25.7674L35.3019 25.6194L35.5204 25.4386L35.8173 25.2084L36.1966 25.0769L36.543 24.9946L36.7409 24.8755L37.0419 24.859L37.1573 24.7275L37.2727 24.6947L37.3223 24.8097L37.5037 24.8426L37.6851 24.7111L37.7511 24.7933L37.7717 24.6823L37.5944 24.3329L37.7717 24.6782L37.8006 24.5138L37.9655 24.5467L38.1634 24.3493L38.25 24.2343L38.1139 23.9384L38.0314 23.889L37.9325 24.0041L37.8006 23.9384L37.6521 24.0205L37.5862 23.9548L37.4377 23.9384L37.4542 23.7904L36.9924 23.6588L36.7903 23.6424L36.7244 23.5766V23.5068L36.5924 23.3752L36.543 22.7833L36.4605 22.6683L36.2791 22.6519L36.1637 22.7505L36.0316 23.03L35.9162 23.2273H35.7843L35.7183 23.2766L35.1534 23.0135L35.005 22.8656L35.0545 22.7011L35.438 22.3395L35.5369 22.023L35.438 21.8092L35.2854 21.7435H35.005L34.84 21.612L34.8071 21.2174L34.8896 20.9872L34.5597 20.1118L34.3453 19.5364L34.0978 19.0883L33.9618 18.9568V18.7924L33.9948 18.7266L33.0382 17.4073L33.2361 16.614L33.3845 15.7426L33.3021 15.0973L33.2196 15.048L32.7042 14.6452L32.3826 14.6L32.498 14.5589ZM30.8116 14.7932L30.9312 15.0275H30.9683H31.2817L31.2446 14.8713L31.2034 14.8343H31.125L30.8116 14.7932ZM13.7537 16.203L13.6341 16.5935L13.597 16.2811L13.4362 16.5524L13.3208 16.3592L13.2795 16.5524L13.1228 16.4373L13.6341 16.8647H13.3579L13.4774 17.062L12.9661 16.7867L13.3208 17.4525L12.8507 17.5306L13.2012 17.6867L13.3579 17.9991L13.5145 18.3115L14.0258 18.3526L14.6155 18.3896L15.0855 18.1964L15.0072 18.0402L15.201 18.1184L15.1638 17.3744L15.3989 17.2963L15.1226 17.3374L15.0855 17.0209L14.8876 17.2182L14.5742 16.9839L14.4175 17.2593L14.4588 16.9058L14.1825 17.062L14.1454 16.8647L14.1042 16.7497L13.6753 17.1032L13.9104 16.6715L13.7537 16.203ZM29.4385 16.203L29.3602 16.5154L29.5953 16.6304L29.752 16.3181L29.4385 16.203ZM30.7704 16.4373L30.5766 16.9428L31.2034 18.0772L31.6363 17.806L31.7517 17.1401L31.6734 17.8429L31.2034 18.0772L30.5354 16.9428L30.7704 16.4373ZM32.3414 16.4373L32.3826 16.5154H32.3785L32.3414 16.4373ZM22.8496 17.4155L22.6929 17.7278L22.9692 17.4936L22.8496 17.4155ZM25.3195 17.4155L25.2411 17.7649H24.969L25.3195 17.4155ZM22.3424 17.7278L22.1445 17.921L22.26 17.9991L22.3424 17.7278ZM22.4208 17.7649L22.26 18.1553L22.4579 17.9991L22.4208 17.7649ZM26.3792 17.8841L26.4987 18.3526L26.342 18.4677L26.3792 17.8841ZM24.8123 18.2334H25.2411L25.1628 18.3896L24.8123 18.2334ZM26.1441 19.2116L26.2225 19.4089L26.0287 19.3308L26.1441 19.2116ZM29.0881 20.0337L29.4015 20.383L30.4199 20.6995V20.7365L29.4015 20.383L29.0881 20.0707V20.0337ZM25.204 20.3461L25.5957 20.5803L25.2411 20.5433L25.204 20.3461ZM27.2822 20.4611L27.6368 20.6584H27.4388L27.5171 21.0119L27.2822 20.4611ZM33.8711 20.4611L34.2999 20.9708L34.2216 21.205L34.2916 21.2503L34.2999 21.2461L34.3494 21.2832L34.4195 21.3243L34.6174 21.2461L34.4978 21.3613L34.7329 21.5585L34.3494 21.2832L34.2916 21.2503L34.0648 21.3243L34.2216 21.09H33.9865L34.0648 20.8146L33.8711 20.4611ZM27.1254 20.7365L27.2822 20.8927H27.0842L27.1254 20.7365ZM25.2824 20.9338L25.9503 21.5956L25.6328 21.4024L25.6741 21.7147H26.0657L26.0287 21.4394L26.2225 21.5174V21.8874L26.1977 21.9326L25.8307 22.2614L25.9998 22.2984L25.9916 22.3107L25.7111 22.3806L25.5173 22.1052L25.7524 22.1833L25.9874 21.949L25.4762 21.5956L25.5544 21.3243L25.2824 20.9338ZM27.48 21.0489L27.8717 21.2461L28.2222 21.949L28.1068 22.1833L27.7934 22.1422L27.9872 22.0271L27.5171 21.6736L27.3192 21.2832L27.5955 21.5585L27.4388 21.205L27.715 21.5174L27.8305 21.3613L27.48 21.0489ZM25.0473 21.2461L25.1257 21.6736L25.1628 21.3613L25.3195 21.5174L25.204 21.3243L25.3978 21.4024L25.0473 21.949V22.3806L25.2824 22.2614L25.204 22.5738L24.9277 22.2614L25.0844 21.7147L25.0473 21.4024L24.8906 21.3243L25.0473 21.2461ZM26.0657 21.7517L25.909 21.8298L26.0287 21.949L26.107 21.7517H26.0657ZM24.4577 21.8298H24.7711V22.0271L24.4989 22.1052V22.3806L24.7711 22.1052L24.5773 22.4176L24.7339 22.5738L24.4989 22.3806V22.4176L24.4577 21.8298ZM26.5771 21.9079L27.2822 22.4587L26.8904 23.0054L26.3008 22.2614L26.5771 21.9079ZM34.4607 21.949L34.5391 22.0271L34.2216 22.4587L34.4607 21.949ZM28.7706 22.3395L28.849 22.4587L28.6139 22.4956L28.7706 22.3395ZM15.2422 22.5738L14.8876 22.808L14.8505 22.9273L15.0443 22.8862L15.2422 22.5738ZM15.6339 22.6519L15.4401 23.1204L15.201 23.0054L15.1638 23.4739L14.8505 23.589L15.201 23.7451L14.6526 24.4521L14.9288 24.2179L15.1638 24.0616L15.201 24.2959L15.0855 24.2179L14.7721 24.8014L14.8092 24.9577L14.8505 24.8426L15.4772 24.9577L15.1638 25.192L15.2422 25.5044L15.3989 25.4262L15.1638 25.8208L15.2834 25.977L14.7309 25.8578L14.4588 26.0551H14.7309L14.6938 26.2894L14.0671 26.5237L14.6526 27.0292L15.0855 26.9141L14.7309 27.1854L14.3021 27.0292L13.5558 27.4978L14.3392 27.6581L14.4959 27.4197L15.7535 27.7732L16.339 27.695L16.3802 27.58L15.9885 27.3827H16.2235L16.6523 26.9511L16.574 26.6387L16.1452 26.5237H16.1039L16.2235 26.1702V26.1332L16.1823 26.0551L15.9885 25.977L16.2606 26.014L16.3019 25.8208L15.9885 25.4262L15.9473 24.5302L15.4401 24.2179L15.8689 24.2959L15.6339 24.1397L15.9473 24.0986L16.3802 23.589L15.5556 23.3547L16.2235 22.8491L15.6339 22.6519ZM29.1252 22.9273L28.9273 23.0834L29.084 23.1204L29.4385 23.3177L29.3231 23.6671L28.7706 23.3547L29.1252 23.3958L28.849 23.0423L29.1252 22.9273ZM14.9288 23.0423L14.9659 23.4739L15.0443 23.3177L14.9288 23.0423ZM30.9683 23.3177L31.0096 24.0616L30.7704 23.5109L30.9683 23.3177ZM33.7515 23.3958L33.8299 23.5109L33.9494 23.3958L33.2815 24.2549V24.411L33.2444 24.6453L33.4382 24.8014L33.6732 24.5672L33.5948 24.9988L33.9082 24.9577L33.5948 25.2331L33.6732 25.0769L33.2031 24.7645L33.2815 24.0986L33.1248 23.9425L32.5764 23.7451L32.1434 23.7863L31.8466 23.9959L31.6363 24.1767L31.6074 24.1685L31.595 24.1767L31.125 23.9836L31.6074 24.1685L31.8466 23.9959L32.1434 23.7451L32.6135 23.7082L33.1248 23.9425L33.2444 24.0205L33.2031 23.8232L33.401 23.9014L33.7515 23.589V23.3958ZM21.2415 23.5109L21.5549 23.552L21.4394 23.9014L20.9282 24.0986L21.0065 23.7451L21.2415 23.7863V23.5109ZM14.8876 23.7082L14.6938 23.8644H14.9288L14.8876 23.7082ZM25.8307 23.7451V24.0986L25.5957 23.8232L25.8307 23.7451ZM24.1856 23.8232L24.066 23.8644L24.1856 24.0205L24.3794 23.9014L24.1856 23.8232ZM27.0058 23.8644L27.2038 24.0205L26.8904 24.0616L27.0058 23.8644ZM36.9676 24.0986L37.2027 24.2549L37.046 24.411L36.9676 24.0986ZM23.9876 24.1397L24.066 24.4891L24.4577 24.1397H23.9876ZM13.9475 24.2179L13.5558 24.411L13.7908 24.5302L13.5558 24.7234L13.0445 24.4891L13.1228 24.8014L12.8095 24.9207L13.2012 25.2331L12.694 25.4673L13.1228 25.5824L12.459 25.5455L12.6528 25.7016L12.3806 25.7797L12.6528 25.8989L12.3806 25.9359L12.6528 25.977L12.459 26.0921L13.1641 26.1332L13.832 26.1702L14.1825 25.1138L14.5742 24.9988L14.5371 24.4521H14.1042L14.3021 24.374L14.1825 24.2179L13.9887 24.411L13.9475 24.2179ZM23.0846 24.4891L22.7713 24.7234L22.8125 25.0358L23.0846 24.4891ZM19.753 24.7234L20.0252 24.8014L19.7902 24.8426L19.8314 25.0769L19.753 24.8796L19.5551 24.9988L19.753 24.7234ZM20.7715 25.4673L20.656 25.7427L20.5777 25.5044L20.2602 25.6235L20.5364 26.4044V26.1332L20.8498 25.7797L20.7715 25.4673ZM19.9468 25.7016L19.8685 25.9359L20.1448 26.014V25.7016H19.9468ZM33.2815 26.2483L33.0464 26.6881L33.1207 27.0457L33.1289 27.0744L33.4382 27.3046L33.2031 27.5019V27.5389L33.1248 28.5171L33.166 27.5389L33.2031 27.2635L33.1289 27.0744L33.1248 27.0703L33.1207 27.0457L33.0093 26.7579L33.0464 26.6881V26.6798L33.2815 26.2483ZM21.1632 26.4455L20.9694 26.5606L21.1632 26.6387V26.4455ZM30.8116 27.0292L30.8529 27.1073L30.8899 27.2265L30.8488 27.1073L30.8116 27.0292ZM34.1061 27.1484L34.0278 27.1895L33.9082 27.2265L34.0278 27.1854L34.1061 27.1484ZM32.5764 28.0855L32.8115 28.2417V28.5541L32.7331 29.2199L32.3785 29.4172L32.3414 29.1418H32.5764L32.498 28.7514L32.6959 28.7103L32.7743 28.3609L32.5764 28.0855ZM27.9088 28.9856L27.7934 29.0267H27.5584L27.4388 29.0638L27.5584 29.0227H27.7934L27.9088 28.9856ZM15.4401 29.0638L15.3618 29.2199V29.298L15.3205 29.3762L15.3576 29.298V29.2199L15.4401 29.0638ZM27.3192 29.0638L27.2409 29.1049H27.0058L26.8904 29.1418L27.0058 29.1007H27.2409L27.3192 29.0638ZM27.9088 29.1007L29.3602 29.6515L29.5582 29.5323L29.7149 30.2351L29.2036 30.3544L29.1252 30.7037L28.6923 30.938L29.0469 30.7037L29.1252 30.2762L29.5582 30.1982V29.7666L27.9088 29.1007ZM26.6554 29.1418L26.5771 29.183H26.342L26.2225 29.2199L26.342 29.1788H26.5771L26.6554 29.1418ZM15.3205 29.4542L15.2834 29.5323V29.6515L15.201 29.8077L15.2793 29.6515V29.5323L15.3205 29.4542ZM35.3224 32.4629L35.5946 32.5409L35.2441 32.582L35.3224 32.4629ZM18.6521 33.2479L18.2233 33.5603L18.3388 34.1069L18.6521 33.7945V33.2479ZM18.4583 34.2631L17.9471 34.3823L17.9099 35.5537L18.4955 35.4345L18.6521 34.7317L18.4583 34.2631ZM15.5968 34.4604L15.1638 34.5755L15.3989 34.8097L15.6751 34.6536L15.5968 34.4604ZM24.969 35.9442L24.7711 36.0223L25.5173 36.4909L25.3978 36.1414L24.969 35.9442ZM23.6743 36.2977L23.5547 36.4538L23.7897 36.4909L23.6743 36.2977ZM21.2828 36.3347L19.753 36.3757L19.8314 36.647L20.9282 37.2348L21.2828 36.3347ZM25.204 37.9007V38.1349L25.7936 38.25L26.4987 38.1719L26.5771 37.9787L26.3008 38.1349L25.204 37.9007ZM20.6643 37.9048L20.7096 38.0609L20.8705 38.0773L20.854 37.9212L20.6643 37.9048Z" fill="#F0F3F7"/>
</svg>
